<svg width="1000" height="1000" viewBox="0 0 1000 1000" xmlns="http://www.w3.org/2000/svg"><defs/><path fill="#ffffff" transform="matrix(0.6812412028720846 0 0 0.6812412028720846 15.396882106631994 43.63807932681163)" d="M 690.35321212267 617.86586676921 C 672.45321212267 616.16586676921 656.45321212267 605.96586676921 647.05321212267 590.56586676921 C 656.65321212267 590.26586676921 670.95321212267 589.26586676921 686.55321212267 586.36586676921 C 693.65321212267 585.06586676921 700.45321212267 583.46586676921 706.85321212267 581.66586676921 C 701.25321212267 596.86586676921 694.85321212267 609.56586676921 690.35321212267 617.86586676921 Z"/><path fill="#ffffff" transform="matrix(0.6812412028720846 0 0 0.6812412028720846 15.396882106631994 43.63807932681163)" d="M 696.95321212267 618.16586676921 C 703.05321212267 606.76586676921 713.25321212267 585.56586676921 719.15321212267 562.06586676921 C 729.45321212267 574.36586676921 737.35321212267 586.36586676921 742.25321212267 594.36586676921 C 731.65321212267 608.96586676921 714.85321212267 617.86586676921 696.95321212267 618.16586676921 Z"/><path fill="#ffffff" transform="matrix(0.6812412028720846 0 0 0.6812412028720846 15.396882106631994 43.63807932681163)" d="M 745.75321212267 588.76586676921 C 738.95321212267 577.76586676921 725.65321212267 558.36586676921 708.25321212267 541.46586676921 C 724.05321212267 538.66586676921 738.35321212267 537.86586676921 747.85321212267 537.66586676921 C 751.25321212267 545.06586676921 752.95321212267 552.96586676921 752.95321212267 561.16586676921 C 752.85321212267 570.86586676921 750.35321212267 580.36586676921 745.75321212267 588.76586676921 Z"/><path fill="#ffffff" transform="matrix(0.6812412028720846 0 0 0.6812412028720846 15.396882106631994 43.63807932681163)" d="M 684.95321212267 540.66586676921 C 690.45321212267 525.56586676921 696.85321212267 512.76586676921 701.45321212267 504.46586676921 C 719.35321212267 506.16586676921 735.45321212267 516.36586676921 744.75321212267 531.76586676921 C 731.75321212267 532.26586676921 708.25321212267 533.96586676921 684.95321212267 540.66586676921 Z"/><path fill="#ffffff" transform="matrix(0.6812412028720846 0 0 0.6812412028720846 15.396882106631994 43.63807932681163)" d="M 649.35321212267 538.86586676921 C 646.25321212267 541.96586676921 643.15321212267 545.16586676921 640.25321212267 548.56586676921 C 639.35321212267 552.66586676921 638.85321212267 556.96586676921 638.85321212267 561.16586676921 C 638.85321212267 569.36586676921 640.55321212267 577.26586676921 643.95321212267 584.66586676921 C 656.45321212267 584.46586676921 671.35321212267 582.96586676921 683.55321212267 580.86586676921 C 668.65321212267 566.46586676921 656.75321212267 550.16586676921 649.35321212267 538.86586676921 Z"/><path fill="#ffffff" transform="matrix(0.6812412028720846 0 0 0.6812412028720846 15.396882106631994 43.63807932681163)" d="M 653.75321212267 534.76586676921 C 658.55321212267 542.06586676921 664.85321212267 551.16586676921 672.65321212267 560.36586676921 C 677.95321212267 539.06586676921 686.85321212267 519.56586676921 693.05321212267 507.66586676921 C 678.65321212267 514.86586676921 665.45321212267 523.96586676921 653.75321212267 534.76586676921 Z"/><path fill="#ffffff" transform="matrix(0.6812412028720846 0 0 0.6812412028720846 15.396882106631994 43.63807932681163)" d="M 725.05321212267 495.46586676921 C 721.55321212267 496.36586676921 718.05321212267 497.46586676921 714.65321212267 498.66586676921 C 741.55321212267 506.76586676921 761.15321212267 531.76586676921 761.15321212267 561.16586676921 C 761.15321212267 597.16586676921 731.85321212267 626.46586676921 695.85321212267 626.46586676921 C 659.85321212267 626.46586676921 630.55321212267 597.16586676921 630.55321212267 561.16586676921 C 630.55321212267 561.06586676921 630.55321212267 560.96586676921 630.55321212267 560.86586676921 C 628.45321212267 563.76586676921 626.45321212267 566.86586676921 624.45321212267 569.96586676921 C 628.75321212267 605.56586676921 659.15321212267 633.16586676921 695.85321212267 633.16586676921 C 735.55321212267 633.16586676921 767.75321212267 600.86586676921 767.75321212267 561.26586676921 C 767.85321212267 531.86586676921 750.25321212267 506.66586676921 725.05321212267 495.46586676921 Z"/><path fill="#ffffff" transform="matrix(0.6812412028720846 0 0 0.6812412028720846 15.396882106631994 43.63807932681163)" d="M 702.55321212267 462.46586676921 C 623.35321212267 462.46586676921 552.65321212267 498.96586676921 506.35321212267 556.06586676921 C 515.35321212267 570.56586676921 525.85321212267 584.06586676921 537.55321212267 596.46586676921 C 571.65321212267 538.06586676921 628.45321212267 494.56586676921 695.85321212267 478.16586676921 C 630.25321212267 498.26586676921 576.05321212267 544.26586676921 545.15321212267 604.26586676921 C 559.35321212267 618.06586676921 575.25321212267 630.16586676921 592.35321212267 640.36586676921 C 602.65321212267 551.46586676921 678.15321212267 482.46586676921 769.75321212267 482.46586676921 C 784.45321212267 482.46586676921 798.65321212267 484.26586676921 812.25321212267 487.56586676921 C 779.15321212267 471.46586676921 741.85321212267 462.46586676921 702.55321212267 462.46586676921 Z"/><path fill="#ffffff" transform="matrix(0.6812412028720846 0 0 0.6812412028720846 15.396882106631994 43.63807932681163)" d="M 885.05321212267 541.36586676921 C 850.95321212267 599.76586676921 794.15321212267 643.26586676921 726.75321212267 659.66586676921 C 792.35321212267 639.56586676921 846.55321212267 593.56586676921 877.45321212267 533.56586676921 C 863.25321212267 519.76586676921 847.35321212267 507.66586676921 830.25321212267 497.46586676921 C 819.95321212267 586.36586676921 744.45321212267 655.36586676921 652.85321212267 655.36586676921 C 638.15321212267 655.36586676921 623.95321212267 653.56586676921 610.35321212267 650.26586676921 C 643.55321212267 666.36586676921 680.75321212267 675.36586676921 720.15321212267 675.36586676921 C 799.35321212267 675.36586676921 870.05321212267 638.86586676921 916.35321212267 581.76586676921 C 907.25321212267 567.26586676921 896.75321212267 553.76586676921 885.05321212267 541.36586676921 Z"/><path id="text" fill="#ffffff" transform="matrix(1.0166852574828034 0 0 1.0166852574828034 -5.758505298382598 417.6678007064509)" d="M 191.21828571429 152.00501028571 L 193.42628571429 151.23701028571 C 194.25828571429 151.23701028571 194.73828571429 151.49301028571 194.86628571429 152.00501028571 C 196.21028571429 159.74901028571 196.88228571429 164.30901028571 196.88228571429 165.68501028571 C 196.88228571429 167.06101028571 196.43428571429 167.74901028571 195.53828571429 167.74901028571 C 194.96228571429 167.74901028571 194.40228571429 167.06101028571 193.85828571429 165.68501028571 C 193.31428571429 164.30901028571 192.67428571429 163.04501028571 191.93828571429 161.89301028571 C 191.20228571429 160.74101028571 190.67428571429 160.00501028571 190.35428571429 159.68501028571 C 190.03428571429 159.36501028571 189.20228571429 158.59701028571 187.85828571429 157.38101028571 C 184.40228571429 154.30901028571 180.45028571429 152.77301028571 176.00228571429 152.77301028571 C 171.55428571429 152.77301028571 167.98628571429 153.73301028571 165.29828571429 155.65301028571 C 162.61028571429 157.57301028571 161.26628571429 160.06901028571 161.26628571429 163.14101028571 C 161.26628571429 166.21301028571 162.05028571429 168.67701028571 163.61828571429 170.53301028571 C 165.18628571429 172.38901028571 167.28228571429 173.82901028571 169.90628571429 174.85301028571 C 172.53028571429 175.87701028571 175.28228571429 176.83701028571 178.16228571429 177.73301028571 C 185.90628571429 180.16501028571 191.63428571429 183.33301028571 195.34628571429 187.23701028571 C 197.90628571429 189.98901028571 199.18628571429 193.41301028571 199.18628571429 197.50901028571 C 199.18628571429 204.22901028571 197.04228571429 209.55701028571 192.75428571429 213.49301028571 C 188.46628571429 217.42901028571 183.15428571429 219.39701028571 176.81828571429 219.39701028571 C 172.40228571429 219.39701028571 168.85028571429 219.15701028571 166.16228571429 218.67701028571 C 163.47428571429 218.19701028571 160.72228571429 217.22101028571 157.90628571429 215.74901028571 C 157.07428571429 215.23701028571 156.08228571429 212.74101028571 154.93028571429 208.26101028571 C 153.77828571429 203.78101028571 153.20228571429 200.98101028571 153.20228571429 199.86101028571 C 153.20228571429 198.74101028571 153.63428571429 198.18101028571 154.49828571429 198.18101028571 C 155.36228571429 198.18101028571 155.89028571429 198.50101028571 156.08228571429 199.14101028571 C 158.45028571429 204.83701028571 161.23428571429 208.86901028571 164.43428571429 211.23701028571 C 167.89028571429 213.86101028571 172.06628571429 215.17301028571 176.96228571429 215.17301028571 C 181.85828571429 215.17301028571 185.76228571429 213.90901028571 188.67428571429 211.38101028571 C 191.58628571429 208.85301028571 193.04228571429 205.54101028571 193.04228571429 201.44501028571 C 193.04228571429 198.43701028571 192.05028571429 195.92501028571 190.06628571429 193.90901028571 C 188.08228571429 191.89301028571 185.81028571429 190.43701028571 183.25028571429 189.54101028571 C 173.71428571429 186.34101028571 167.25028571429 183.74901028571 163.85828571429 181.76501028571 C 158.03428571429 178.30901028571 155.12228571429 173.66901028571 155.12228571429 167.84501028571 C 155.12228571429 162.02101028571 157.18628571429 157.39701028571 161.31428571429 153.97301028571 C 165.44228571429 150.54901028571 170.80228571429 148.83701028571 177.39428571429 148.83701028571 C 179.82628571429 148.83701028571 182.72228571429 149.36501028571 186.08228571429 150.42101028571 C 189.44228571429 151.47701028571 191.15428571429 152.00501028571 191.21828571429 152.00501028571 Z M 216.37028571429 179.55701028571 L 216.46628571429 169.18901028571 C 216.46628571429 164.32501028571 216.27428571429 160.51701028571 215.89028571429 157.76501028571 C 215.69828571429 156.16501028571 214.85028571429 154.91701028571 213.34628571429 154.02101028571 C 211.84228571429 153.12501028571 210.53028571429 152.67701028571 209.41028571429 152.67701028571 C 208.29028571429 152.67701028571 207.55428571429 152.46901028571 207.20228571429 152.05301028571 C 206.85028571429 151.63701028571 206.67428571429 151.30101028571 206.67428571429 151.04501028571 C 206.67428571429 150.34101028571 207.57028571429 149.98901028571 209.36228571429 149.98901028571 L 220.21028571429 150.37301028571 L 228.65828571429 150.18101028571 C 230.06628571429 150.18101028571 230.77028571429 150.62901028571 230.77028571429 151.52501028571 C 230.77028571429 152.61301028571 229.65028571429 153.15701028571 227.41028571429 153.15701028571 C 226.13028571429 153.15701028571 225.20228571429 154.46901028571 224.62628571429 157.09301028571 C 224.05028571429 159.71701028571 223.76228571429 162.40501028571 223.76228571429 165.15701028571 L 223.76228571429 168.70901028571 L 223.57028571429 177.54101028571 C 223.57028571429 179.14101028571 223.76228571429 180.16501028571 224.14628571429 180.61301028571 C 224.53028571429 181.06101028571 225.42628571429 181.28501028571 226.83428571429 181.28501028571 L 242.57828571429 181.18901028571 C 242.57828571429 181.18901028571 248.62628571429 181.25301028571 260.72228571429 181.38101028571 C 261.42628571429 181.38101028571 261.77828571429 176.93301028571 261.77828571429 168.03701028571 L 261.77828571429 162.85301028571 C 261.77828571429 158.05301028571 260.81828571429 155.10901028571 258.89828571429 154.02101028571 C 258.13028571429 153.57301028571 257.34628571429 153.28501028571 256.54628571429 153.15701028571 C 255.74628571429 153.02901028571 255.07428571429 152.85301028571 254.53028571429 152.62901028571 C 253.98628571429 152.40501028571 253.71428571429 151.97301028571 253.71428571429 151.33301028571 C 253.71428571429 150.69301028571 254.96228571429 150.37301028571 257.45828571429 150.37301028571 L 266.77028571429 150.56501028571 L 274.25828571429 150.37301028571 C 275.73028571429 150.37301028571 276.46628571429 150.78901028571 276.46628571429 151.62101028571 C 276.46628571429 152.45301028571 276.01828571429 152.86901028571 275.12228571429 152.86901028571 C 273.33028571429 152.86901028571 271.97028571429 153.41301028571 271.04228571429 154.50101028571 C 270.11428571429 155.58901028571 269.65028571429 157.02901028571 269.65028571429 158.82101028571 L 269.17028571429 196.54901028571 L 269.17028571429 200.10101028571 L 269.55428571429 208.93301028571 C 269.55428571429 213.09301028571 272.24228571429 215.46101028571 277.61828571429 216.03701028571 C 278.38628571429 216.03701028571 278.77028571429 216.38901028571 278.77028571429 217.09301028571 C 278.77028571429 217.54101028571 278.45028571429 217.82901028571 277.81028571429 217.95701028571 C 277.17028571429 218.08501028571 275.92228571429 218.14901028571 274.06628571429 218.14901028571 L 266.67428571429 217.66901028571 L 257.65028571429 218.14901028571 L 256.01828571429 218.14901028571 C 255.12228571429 218.14901028571 254.59428571429 218.02101028571 254.43428571429 217.76501028571 C 254.27428571429 217.50901028571 254.19428571429 217.20501028571 254.19428571429 216.85301028571 C 254.19428571429 216.50101028571 254.51428571429 216.16501028571 255.15428571429 215.84501028571 C 255.79428571429 215.52501028571 256.49828571429 215.26901028571 257.26628571429 215.07701028571 C 258.03428571429 214.88501028571 258.77028571429 214.50101028571 259.47428571429 213.92501028571 C 260.81828571429 212.96501028571 261.49028571429 209.95701028571 261.49028571429 204.90101028571 L 261.77828571429 187.90901028571 C 261.77828571429 186.94901028571 261.39428571429 186.27701028571 260.62628571429 185.89301028571 C 259.85828571429 185.50901028571 258.61028571429 185.31701028571 256.88228571429 185.31701028571 C 255.15428571429 185.31701028571 252.56228571429 185.38101028571 249.10628571429 185.50901028571 L 243.92228571429 185.60501028571 L 226.25828571429 185.31701028571 C 225.29828571429 185.31701028571 224.65828571429 185.50901028571 224.33828571429 185.89301028571 C 224.01828571429 186.27701028571 223.85828571429 187.26901028571 223.85828571429 188.86901028571 L 223.47428571429 200.67701028571 L 223.47428571429 204.80501028571 C 223.47428571429 207.55701028571 223.73028571429 209.60501028571 224.24228571429 210.94901028571 C 224.75428571429 212.29301028571 226.00228571429 213.60501028571 227.98628571429 214.88501028571 C 228.49828571429 215.20501028571 229.42628571429 215.36501028571 230.77028571429 215.36501028571 C 232.88228571429 215.36501028571 233.93828571429 215.71701028571 233.93828571429 216.42101028571 C 233.93828571429 217.57301028571 232.91428571429 218.14901028571 230.86628571429 218.14901028571 L 222.89828571429 217.76501028571 L 212.53028571429 218.24501028571 C 209.52228571429 218.24501028571 208.01828571429 217.76501028571 208.01828571429 216.80501028571 C 208.01828571429 215.90901028571 209.01028571429 215.33301028571 210.99428571429 215.07701028571 C 211.76228571429 215.01301028571 212.56228571429 214.61301028571 213.39428571429 213.87701028571 C 214.22628571429 213.14101028571 214.77028571429 212.14901028571 215.02628571429 210.90101028571 C 215.28228571429 209.65301028571 215.57028571429 206.27701028571 215.89028571429 200.77301028571 C 216.21028571429 195.26901028571 216.37028571429 190.02101028571 216.37028571429 185.02901028571 L 216.37028571429 179.55701028571 Z M 293.65028571429 218.14901028571 L 285.39428571429 218.53301028571 C 283.53828571429 218.53301028571 282.61028571429 218.14901028571 282.61028571429 217.38101028571 C 282.61028571429 216.48501028571 283.09028571429 215.87701028571 284.05028571429 215.55701028571 C 286.09828571429 214.78901028571 287.89028571429 213.07701028571 289.42628571429 210.42101028571 C 290.96228571429 207.76501028571 294.81828571429 199.73301028571 300.99428571429 186.32501028571 C 307.17028571429 172.91701028571 312.65828571429 161.09301028571 317.45828571429 150.85301028571 C 317.90628571429 149.89301028571 318.30628571429 149.28501028571 318.65828571429 149.02901028571 C 319.01028571429 148.77301028571 319.52228571429 148.64501028571 320.19428571429 148.64501028571 C 320.86628571429 148.64501028571 321.29828571429 148.77301028571 321.49028571429 149.02901028571 C 321.68228571429 149.28501028571 322.03428571429 150.14901028571 322.54628571429 151.62101028571 C 323.05828571429 153.09301028571 323.45828571429 154.21301028571 323.74628571429 154.98101028571 C 324.03428571429 155.74901028571 324.49828571429 156.99701028571 325.13828571429 158.72501028571 C 325.77828571429 160.45301028571 326.80228571429 163.04501028571 328.21028571429 166.50101028571 C 329.61828571429 169.95701028571 332.83428571429 177.52501028571 337.85828571429 189.20501028571 C 342.88228571429 200.88501028571 345.77828571429 207.50901028571 346.54628571429 209.07701028571 C 347.31428571429 210.64501028571 348.37028571429 211.98901028571 349.71428571429 213.10901028571 C 351.05828571429 214.22901028571 352.22628571429 214.83701028571 353.21828571429 214.93301028571 C 354.21028571429 215.02901028571 355.04228571429 215.18901028571 355.71428571429 215.41301028571 C 356.38628571429 215.63701028571 356.72228571429 216.13301028571 356.72228571429 216.90101028571 C 356.72228571429 217.86101028571 355.85828571429 218.34101028571 354.13028571429 218.34101028571 L 345.49028571429 217.76501028571 L 336.56228571429 218.14901028571 C 334.57828571429 218.14901028571 333.31428571429 218.06901028571 332.77028571429 217.90901028571 C 332.22628571429 217.74901028571 331.95428571429 217.41301028571 331.95428571429 216.90101028571 C 331.95428571429 216.38901028571 332.21028571429 215.98901028571 332.72228571429 215.70101028571 C 333.23428571429 215.41301028571 333.77828571429 215.22101028571 334.35428571429 215.12501028571 C 334.93028571429 215.02901028571 335.47428571429 214.74101028571 335.98628571429 214.26101028571 C 336.49828571429 213.78101028571 336.75428571429 212.98101028571 336.75428571429 211.86101028571 C 336.75428571429 210.74101028571 335.95428571429 208.00501028571 334.35428571429 203.65301028571 C 332.75428571429 199.30101028571 331.41028571429 196.10101028571 330.32228571429 194.05301028571 C 329.74628571429 192.96501028571 328.43428571429 192.42101028571 326.38628571429 192.42101028571 L 314.77028571429 192.61301028571 L 309.68228571429 192.61301028571 C 306.80228571429 192.61301028571 304.99428571429 192.77301028571 304.25828571429 193.09301028571 C 303.52228571429 193.41301028571 302.91428571429 194.08501028571 302.43428571429 195.10901028571 C 301.95428571429 196.13301028571 301.26628571429 197.55701028571 300.37028571429 199.38101028571 C 299.47428571429 201.20501028571 298.86628571429 202.46901028571 298.54628571429 203.17301028571 C 298.22628571429 203.87701028571 297.84228571429 204.77301028571 297.39428571429 205.86101028571 C 296.56228571429 207.78101028571 296.14628571429 209.38101028571 296.14628571429 210.66101028571 C 296.14628571429 211.94101028571 296.51428571429 212.96501028571 297.25028571429 213.73301028571 C 297.98628571429 214.50101028571 298.80228571429 214.94901028571 299.69828571429 215.07701028571 C 302.06628571429 215.26901028571 303.25028571429 215.87701028571 303.25028571429 216.90101028571 C 303.25028571429 217.34901028571 303.15428571429 217.68501028571 302.96228571429 217.90901028571 C 302.77028571429 218.13301028571 302.32228571429 218.24501028571 301.61828571429 218.24501028571 L 293.65028571429 218.14901028571 Z M 311.31428571429 174.03701028571 C 308.24228571429 181.10901028571 306.70628571429 185.02901028571 306.70628571429 185.79701028571 C 306.70628571429 186.56501028571 306.99428571429 187.04501028571 307.57028571429 187.23701028571 C 308.14628571429 187.42901028571 309.49028571429 187.52501028571 311.60228571429 187.52501028571 L 314.57828571429 187.52501028571 L 323.69828571429 187.42901028571 C 326.19428571429 187.42901028571 327.44228571429 186.96501028571 327.44228571429 186.03701028571 C 327.44228571429 185.10901028571 325.87428571429 181.10901028571 322.73828571429 174.03701028571 C 319.60228571429 166.96501028571 317.61828571429 163.42901028571 316.78628571429 163.42901028571 C 316.21028571429 163.42901028571 314.38628571429 166.96501028571 311.31428571429 174.03701028571 Z M 369.97028571429 177.06101028571 L 369.87428571429 160.83701028571 C 369.87428571429 158.46901028571 369.39428571429 156.66101028571 368.43428571429 155.41301028571 C 367.47428571429 154.16501028571 366.40228571429 153.46101028571 365.21828571429 153.30101028571 C 364.03428571429 153.14101028571 362.96228571429 152.93301028571 362.00228571429 152.67701028571 C 361.04228571429 152.42101028571 360.56228571429 151.97301028571 360.56228571429 151.33301028571 C 360.56228571429 150.30901028571 361.49028571429 149.79701028571 363.34628571429 149.79701028571 L 379.28228571429 149.79701028571 L 388.88228571429 149.50901028571 C 394.64228571429 149.50901028571 399.57028571429 150.96501028571 403.66628571429 153.87701028571 C 407.76228571429 156.78901028571 409.81028571429 160.70901028571 409.81028571429 165.63701028571 C 409.81028571429 168.90101028571 409.18628571429 171.76501028571 407.93828571429 174.22901028571 C 406.69028571429 176.69301028571 405.31428571429 178.46901028571 403.81028571429 179.55701028571 C 402.30628571429 180.64501028571 400.93028571429 181.58901028571 399.68228571429 182.38901028571 C 398.43428571429 183.18901028571 397.81028571429 183.71701028571 397.81028571429 183.97301028571 C 397.81028571429 184.74101028571 400.49828571429 188.88501028571 405.87428571429 196.40501028571 C 411.25028571429 203.92501028571 414.93028571429 208.74101028571 416.91428571429 210.85301028571 C 419.34628571429 213.86101028571 422.29028571429 215.36501028571 425.74628571429 215.36501028571 C 426.64228571429 215.36501028571 427.09028571429 215.74901028571 427.09028571429 216.51701028571 C 427.09028571429 217.47701028571 426.70628571429 218.11701028571 425.93828571429 218.43701028571 C 425.17028571429 218.75701028571 423.23428571429 218.91701028571 420.13028571429 218.91701028571 C 417.02628571429 218.91701028571 414.22628571429 218.18101028571 411.73028571429 216.70901028571 C 408.27428571429 214.72501028571 402.54628571429 207.04501028571 394.54628571429 193.66901028571 C 391.47428571429 188.67701028571 389.10628571429 186.18101028571 387.44228571429 186.18101028571 L 379.57028571429 186.18101028571 C 378.80228571429 186.18101028571 378.33828571429 186.50101028571 378.17828571429 187.14101028571 C 378.01828571429 187.78101028571 377.93828571429 189.66901028571 377.93828571429 192.80501028571 C 377.93828571429 192.80501028571 377.93828571429 195.39701028571 377.93828571429 200.58101028571 L 378.03428571429 205.66901028571 C 378.03428571429 205.66901028571 378.03428571429 205.95701028571 378.03428571429 206.53301028571 C 378.03428571429 209.15701028571 378.64228571429 211.18901028571 379.85828571429 212.62901028571 C 381.07428571429 214.06901028571 382.43428571429 214.90101028571 383.93828571429 215.12501028571 C 385.44228571429 215.34901028571 386.80228571429 215.60501028571 388.01828571429 215.89301028571 C 389.23428571429 216.18101028571 389.84228571429 216.64501028571 389.84228571429 217.28501028571 C 389.84228571429 218.30901028571 389.26628571429 218.82101028571 388.11428571429 218.82101028571 C 388.11428571429 218.82101028571 383.53828571429 218.59701028571 374.38628571429 218.14901028571 L 363.82628571429 218.53301028571 C 362.48228571429 218.53301028571 361.81028571429 218.02101028571 361.81028571429 216.99701028571 C 361.81028571429 215.90901028571 363.15428571429 215.20501028571 365.84228571429 214.88501028571 C 366.86628571429 214.75701028571 367.79428571429 214.05301028571 368.62628571429 212.77301028571 C 369.45828571429 211.49301028571 369.87428571429 209.66901028571 369.87428571429 207.30101028571 L 369.97028571429 177.06101028571 Z M 377.93828571429 166.69301028571 C 377.93828571429 173.28501028571 377.97028571429 177.36501028571 378.03428571429 178.93301028571 C 378.09828571429 180.50101028571 378.32228571429 181.41301028571 378.70628571429 181.66901028571 C 379.66628571429 182.24501028571 381.04228571429 182.53301028571 382.83428571429 182.53301028571 L 386.57828571429 182.53301028571 C 392.01828571429 182.53301028571 395.90628571429 181.28501028571 398.24228571429 178.78901028571 C 400.57828571429 176.29301028571 401.74628571429 173.07701028571 401.74628571429 169.14101028571 C 401.74628571429 165.20501028571 400.19428571429 161.60501028571 397.09028571429 158.34101028571 C 393.98628571429 155.07701028571 389.29828571429 153.44501028571 383.02628571429 153.44501028571 C 380.65828571429 153.44501028571 379.21828571429 154.06901028571 378.70628571429 155.31701028571 C 378.19428571429 156.56501028571 377.93828571429 159.46101028571 377.93828571429 164.00501028571 L 377.93828571429 166.69301028571 Z M 432.75428571429 215.46101028571 L 434.96228571429 215.36501028571 C 436.30628571429 215.36501028571 437.42628571429 214.24501028571 438.32228571429 212.00501028571 C 438.89828571429 210.53301028571 439.25028571429 208.19701028571 439.37828571429 204.99701028571 C 439.50628571429 201.79701028571 439.57028571429 192.29301028571 439.57028571429 176.48501028571 L 439.57028571429 160.16501028571 C 439.57028571429 159.14101028571 439.25028571429 157.98901028571 438.61028571429 156.70901028571 C 437.33028571429 154.02101028571 434.83428571429 152.67701028571 431.12228571429 152.67701028571 C 430.03428571429 152.67701028571 429.49028571429 152.29301028571 429.49028571429 151.52501028571 C 429.49028571429 150.56501028571 429.77828571429 150.08501028571 430.35428571429 150.08501028571 L 434.19428571429 150.18101028571 L 448.21028571429 150.08501028571 L 458.77028571429 149.79701028571 C 464.59428571429 149.79701028571 469.45828571429 151.18901028571 473.36228571429 153.97301028571 C 477.26628571429 156.75701028571 479.21828571429 160.70901028571 479.21828571429 165.82901028571 C 479.21828571429 171.33301028571 476.33828571429 175.84501028571 470.57828571429 179.36501028571 C 469.93828571429 179.81301028571 469.61828571429 180.06901028571 469.61828571429 180.13301028571 C 469.61828571429 180.32501028571 470.16228571429 180.56501028571 471.25028571429 180.85301028571 C 472.33828571429 181.14101028571 473.65028571429 181.62101028571 475.18628571429 182.29301028571 C 476.72228571429 182.96501028571 478.24228571429 183.87701028571 479.74628571429 185.02901028571 C 481.25028571429 186.18101028571 482.54628571429 187.89301028571 483.63428571429 190.16501028571 C 484.72228571429 192.43701028571 485.26628571429 195.02901028571 485.26628571429 197.94101028571 C 485.26628571429 200.85301028571 484.46628571429 203.87701028571 482.86628571429 207.01301028571 C 481.26628571429 210.14901028571 479.21828571429 212.58101028571 476.72228571429 214.30901028571 C 474.22628571429 216.03701028571 471.76228571429 217.23701028571 469.33028571429 217.90901028571 C 466.89828571429 218.58101028571 464.17828571429 218.91701028571 461.17028571429 218.91701028571 C 458.16228571429 218.91701028571 454.54628571429 218.74101028571 450.32228571429 218.38901028571 C 446.09828571429 218.03701028571 443.76228571429 217.86101028571 443.31428571429 217.86101028571 L 435.05828571429 218.24501028571 L 433.71428571429 218.24501028571 C 432.37028571429 218.24501028571 431.69828571429 217.78101028571 431.69828571429 216.85301028571 C 431.69828571429 215.92501028571 432.05028571429 215.46101028571 432.75428571429 215.46101028571 Z M 446.96228571429 205.09301028571 L 446.86628571429 209.31701028571 C 446.86628571429 213.15701028571 450.00228571429 215.07701028571 456.27428571429 215.07701028571 L 458.48228571429 215.07701028571 C 461.93828571429 215.07701028571 464.93028571429 214.86901028571 467.45828571429 214.45301028571 C 469.98628571429 214.03701028571 472.22628571429 212.51701028571 474.17828571429 209.89301028571 C 476.13028571429 207.26901028571 477.10628571429 204.26101028571 477.10628571429 200.86901028571 C 477.10628571429 197.47701028571 476.53028571429 194.64501028571 475.37828571429 192.37301028571 C 474.22628571429 190.10101028571 472.91428571429 188.38901028571 471.44228571429 187.23701028571 C 469.97028571429 186.08501028571 468.21028571429 185.18901028571 466.16228571429 184.54901028571 C 463.34628571429 183.65301028571 460.72228571429 183.20501028571 458.29028571429 183.20501028571 L 450.80228571429 183.10901028571 L 449.36228571429 183.01301028571 C 448.78628571429 183.01301028571 448.37028571429 183.09301028571 448.11428571429 183.25301028571 C 447.85828571429 183.41301028571 447.60228571429 184.03701028571 447.34628571429 185.12501028571 C 447.09028571429 186.46901028571 446.96228571429 190.94901028571 446.96228571429 198.56501028571 L 446.96228571429 205.09301028571 Z M 447.44228571429 165.82901028571 C 447.44228571429 173.89301028571 447.66628571429 178.37301028571 448.11428571429 179.26901028571 C 448.37028571429 179.71701028571 450.19428571429 179.94101028571 453.58628571429 179.94101028571 L 459.73028571429 179.94101028571 C 463.76228571429 179.94101028571 466.78628571429 178.88501028571 468.80228571429 176.77301028571 C 470.81828571429 174.66101028571 471.82628571429 171.87701028571 471.82628571429 168.42101028571 C 471.82628571429 164.96501028571 470.14628571429 161.55701028571 466.78628571429 158.19701028571 C 463.42628571429 154.83701028571 458.64228571429 153.15701028571 452.43428571429 153.15701028571 C 450.45028571429 153.15701028571 449.12228571429 153.74901028571 448.45028571429 154.93301028571 C 447.77828571429 156.11701028571 447.44228571429 158.82101028571 447.44228571429 163.04501028571 L 447.44228571429 165.82901028571 Z M 499.18628571429 184.06901028571 L 499.47428571429 167.46101028571 C 499.47428571429 165.73301028571 499.41028571429 162.82101028571 499.28228571429 158.72501028571 C 499.21828571429 156.86901028571 498.41828571429 155.42901028571 496.88228571429 154.40501028571 C 495.34628571429 153.38101028571 493.55428571429 152.83701028571 491.50628571429 152.77301028571 C 490.48228571429 152.77301028571 489.97028571429 152.19701028571 489.97028571429 151.04501028571 C 489.97028571429 150.14901028571 490.86628571429 149.70101028571 492.65828571429 149.70101028571 L 495.25028571429 149.89301028571 L 518.67428571429 150.37301028571 L 537.87428571429 149.98901028571 C 539.09028571429 149.98901028571 539.69828571429 150.72501028571 539.69828571429 152.19701028571 C 539.69828571429 152.58101028571 539.50628571429 153.84501028571 539.12228571429 155.98901028571 C 538.73828571429 158.13301028571 538.54628571429 159.81301028571 538.54628571429 161.02901028571 C 538.54628571429 163.07701028571 538.05028571429 164.10101028571 537.05828571429 164.10101028571 C 536.06628571429 164.10101028571 535.57028571429 163.33301028571 535.57028571429 161.79701028571 C 535.57028571429 160.26101028571 535.02628571429 158.78901028571 533.93828571429 157.38101028571 C 532.85028571429 155.97301028571 531.50628571429 155.23701028571 529.90628571429 155.17301028571 C 524.14628571429 154.72501028571 519.73028571429 154.50101028571 516.65828571429 154.50101028571 L 514.16228571429 154.50101028571 C 510.83428571429 154.50101028571 508.91428571429 154.72501028571 508.40228571429 155.17301028571 C 507.44228571429 156.00501028571 506.96228571429 163.07701028571 506.96228571429 176.38901028571 C 506.96228571429 179.58901028571 507.57028571429 181.22101028571 508.78628571429 181.28501028571 L 518.19428571429 181.28501028571 C 522.03428571429 181.28501028571 524.59428571429 181.15701028571 525.87428571429 180.90101028571 C 529.20228571429 180.26101028571 531.09028571429 178.59701028571 531.53828571429 175.90901028571 C 531.73028571429 174.82101028571 532.14628571429 174.27701028571 532.78628571429 174.27701028571 C 533.42628571429 174.27701028571 533.81028571429 174.37301028571 533.93828571429 174.56501028571 C 534.06628571429 174.75701028571 534.13028571429 175.17301028571 534.13028571429 175.81301028571 L 533.36228571429 185.89301028571 L 533.65028571429 191.74901028571 C 533.65028571429 193.34901028571 533.42628571429 194.14901028571 532.97828571429 194.14901028571 C 532.01828571429 194.14901028571 531.31428571429 193.38101028571 530.86628571429 191.84501028571 C 529.97028571429 189.15701028571 529.17028571429 187.58901028571 528.46628571429 187.14101028571 C 527.12228571429 186.24501028571 524.78628571429 185.79701028571 521.45828571429 185.79701028571 L 514.54628571429 185.79701028571 L 511.47428571429 185.70101028571 L 510.80228571429 185.70101028571 C 508.17828571429 185.70101028571 506.86628571429 186.30901028571 506.86628571429 187.52501028571 L 506.67428571429 201.34901028571 L 506.67428571429 205.18901028571 C 506.67428571429 209.79701028571 507.45828571429 212.34101028571 509.02628571429 212.82101028571 C 510.59428571429 213.30101028571 511.95428571429 213.54101028571 513.10628571429 213.54101028571 C 522.70628571429 213.54101028571 529.65028571429 212.77301028571 533.93828571429 211.23701028571 C 537.71428571429 209.82901028571 540.01828571429 208.35701028571 540.85028571429 206.82101028571 C 541.61828571429 205.22101028571 542.32228571429 204.42101028571 542.96228571429 204.42101028571 C 543.73028571429 204.42101028571 544.11428571429 204.96501028571 544.11428571429 206.05301028571 C 544.11428571429 208.80501028571 542.73828571429 211.58901028571 539.98628571429 214.40501028571 C 537.23428571429 217.22101028571 534.83428571429 218.62901028571 532.78628571429 218.62901028571 C 528.17828571429 218.62901028571 522.97828571429 218.46901028571 517.18628571429 218.14901028571 C 511.39428571429 217.82901028571 507.79428571429 217.66901028571 506.38628571429 217.66901028571 L 493.33028571429 218.53301028571 C 491.98628571429 218.53301028571 491.31428571429 218.21301028571 491.31428571429 217.57301028571 L 491.31428571429 216.42101028571 C 491.31428571429 216.03701028571 491.63428571429 215.78101028571 492.27428571429 215.65301028571 C 492.97828571429 215.58901028571 494.06628571429 215.20501028571 495.53828571429 214.50101028571 C 497.01028571429 213.79701028571 497.98628571429 212.32501028571 498.46628571429 210.08501028571 C 498.94628571429 207.84501028571 499.18628571429 203.14101028571 499.18628571429 195.97301028571 L 499.18628571429 184.06901028571 Z M 558.99428571429 218.14901028571 L 550.73828571429 218.53301028571 C 548.88228571429 218.53301028571 547.95428571429 218.14901028571 547.95428571429 217.38101028571 C 547.95428571429 216.48501028571 548.43428571429 215.87701028571 549.39428571429 215.55701028571 C 551.44228571429 214.78901028571 553.23428571429 213.07701028571 554.77028571429 210.42101028571 C 556.30628571429 207.76501028571 560.16228571429 199.73301028571 566.33828571429 186.32501028571 C 572.51428571429 172.91701028571 578.00228571429 161.09301028571 582.80228571429 150.85301028571 C 583.25028571429 149.89301028571 583.65028571429 149.28501028571 584.00228571429 149.02901028571 C 584.35428571429 148.77301028571 584.86628571429 148.64501028571 585.53828571429 148.64501028571 C 586.21028571429 148.64501028571 586.64228571429 148.77301028571 586.83428571429 149.02901028571 C 587.02628571429 149.28501028571 587.37828571429 150.14901028571 587.89028571429 151.62101028571 C 588.40228571429 153.09301028571 588.80228571429 154.21301028571 589.09028571429 154.98101028571 C 589.37828571429 155.74901028571 589.84228571429 156.99701028571 590.48228571429 158.72501028571 C 591.12228571429 160.45301028571 592.14628571429 163.04501028571 593.55428571429 166.50101028571 C 594.96228571429 169.95701028571 598.17828571429 177.52501028571 603.20228571429 189.20501028571 C 608.22628571429 200.88501028571 611.12228571429 207.50901028571 611.89028571429 209.07701028571 C 612.65828571429 210.64501028571 613.71428571429 211.98901028571 615.05828571429 213.10901028571 C 616.40228571429 214.22901028571 617.57028571429 214.83701028571 618.56228571429 214.93301028571 C 619.55428571429 215.02901028571 620.38628571429 215.18901028571 621.05828571429 215.41301028571 C 621.73028571429 215.63701028571 622.06628571429 216.13301028571 622.06628571429 216.90101028571 C 622.06628571429 217.86101028571 621.20228571429 218.34101028571 619.47428571429 218.34101028571 L 610.83428571429 217.76501028571 L 601.90628571429 218.14901028571 C 599.92228571429 218.14901028571 598.65828571429 218.06901028571 598.11428571429 217.90901028571 C 597.57028571429 217.74901028571 597.29828571429 217.41301028571 597.29828571429 216.90101028571 C 597.29828571429 216.38901028571 597.55428571429 215.98901028571 598.06628571429 215.70101028571 C 598.57828571429 215.41301028571 599.12228571429 215.22101028571 599.69828571429 215.12501028571 C 600.27428571429 215.02901028571 600.81828571429 214.74101028571 601.33028571429 214.26101028571 C 601.84228571429 213.78101028571 602.09828571429 212.98101028571 602.09828571429 211.86101028571 C 602.09828571429 210.74101028571 601.29828571429 208.00501028571 599.69828571429 203.65301028571 C 598.09828571429 199.30101028571 596.75428571429 196.10101028571 595.66628571429 194.05301028571 C 595.09028571429 192.96501028571 593.77828571429 192.42101028571 591.73028571429 192.42101028571 L 580.11428571429 192.61301028571 L 575.02628571429 192.61301028571 C 572.14628571429 192.61301028571 570.33828571429 192.77301028571 569.60228571429 193.09301028571 C 568.86628571429 193.41301028571 568.25828571429 194.08501028571 567.77828571429 195.10901028571 C 567.29828571429 196.13301028571 566.61028571429 197.55701028571 565.71428571429 199.38101028571 C 564.81828571429 201.20501028571 564.21028571429 202.46901028571 563.89028571429 203.17301028571 C 563.57028571429 203.87701028571 563.18628571429 204.77301028571 562.73828571429 205.86101028571 C 561.90628571429 207.78101028571 561.49028571429 209.38101028571 561.49028571429 210.66101028571 C 561.49028571429 211.94101028571 561.85828571429 212.96501028571 562.59428571429 213.73301028571 C 563.33028571429 214.50101028571 564.14628571429 214.94901028571 565.04228571429 215.07701028571 C 567.41028571429 215.26901028571 568.59428571429 215.87701028571 568.59428571429 216.90101028571 C 568.59428571429 217.34901028571 568.49828571429 217.68501028571 568.30628571429 217.90901028571 C 568.11428571429 218.13301028571 567.66628571429 218.24501028571 566.96228571429 218.24501028571 L 558.99428571429 218.14901028571 Z M 576.65828571429 174.03701028571 C 573.58628571429 181.10901028571 572.05028571429 185.02901028571 572.05028571429 185.79701028571 C 572.05028571429 186.56501028571 572.33828571429 187.04501028571 572.91428571429 187.23701028571 C 573.49028571429 187.42901028571 574.83428571429 187.52501028571 576.94628571429 187.52501028571 L 579.92228571429 187.52501028571 L 589.04228571429 187.42901028571 C 591.53828571429 187.42901028571 592.78628571429 186.96501028571 592.78628571429 186.03701028571 C 592.78628571429 185.10901028571 591.21828571429 181.10901028571 588.08228571429 174.03701028571 C 584.94628571429 166.96501028571 582.96228571429 163.42901028571 582.13028571429 163.42901028571 C 581.55428571429 163.42901028571 579.73028571429 166.96501028571 576.65828571429 174.03701028571 Z M 629.26628571429 176.77301028571 L 629.45828571429 162.94901028571 C 629.45828571429 159.42901028571 629.04228571429 157.01301028571 628.21028571429 155.70101028571 C 627.37828571429 154.38901028571 625.42628571429 153.50901028571 622.35428571429 153.06101028571 C 620.94628571429 152.86901028571 620.24228571429 152.26101028571 620.24228571429 151.23701028571 C 620.24228571429 150.72501028571 620.43428571429 150.38901028571 620.81828571429 150.22901028571 C 621.20228571429 150.06901028571 621.74628571429 149.98901028571 622.45028571429 149.98901028571 L 633.29828571429 150.37301028571 L 642.32228571429 150.18101028571 C 643.66628571429 150.18101028571 644.33828571429 150.62901028571 644.33828571429 151.52501028571 C 644.33828571429 152.10101028571 644.11428571429 152.45301028571 643.66628571429 152.58101028571 C 643.21828571429 152.70901028571 642.65828571429 152.80501028571 641.98628571429 152.86901028571 C 641.31428571429 152.93301028571 640.65828571429 153.15701028571 640.01828571429 153.54101028571 C 638.41828571429 154.43701028571 637.61828571429 157.41301028571 637.61828571429 162.46901028571 L 637.61828571429 165.15701028571 L 637.52228571429 185.89301028571 C 637.52228571429 192.22901028571 637.71428571429 196.35701028571 638.09828571429 198.27701028571 C 638.48228571429 200.19701028571 638.93028571429 201.97301028571 639.44228571429 203.60501028571 C 639.95428571429 205.23701028571 640.57828571429 206.53301028571 641.31428571429 207.49301028571 C 642.05028571429 208.45301028571 642.97828571429 209.50901028571 644.09828571429 210.66101028571 C 645.21828571429 211.81301028571 646.51428571429 212.70901028571 647.98628571429 213.34901028571 C 651.44228571429 214.75701028571 655.37828571429 215.46101028571 659.79428571429 215.46101028571 C 666.70628571429 215.46101028571 671.50628571429 214.69301028571 674.19428571429 213.15701028571 C 675.34628571429 212.51701028571 676.67428571429 211.50901028571 678.17828571429 210.13301028571 C 679.68228571429 208.75701028571 680.85028571429 207.07701028571 681.68228571429 205.09301028571 C 683.66628571429 200.35701028571 684.65828571429 194.34101028571 684.65828571429 187.04501028571 L 684.56228571429 166.69301028571 C 684.56228571429 164.45301028571 684.51428571429 162.69301028571 684.41828571429 161.41301028571 C 684.32228571429 160.13301028571 684.00228571429 158.72501028571 683.45828571429 157.18901028571 C 682.91428571429 155.65301028571 682.22628571429 154.59701028571 681.39428571429 154.02101028571 C 680.56228571429 153.44501028571 679.63428571429 153.07701028571 678.61028571429 152.91701028571 C 677.58628571429 152.75701028571 676.75428571429 152.62901028571 676.11428571429 152.53301028571 C 675.47428571429 152.43701028571 675.15428571429 152.16501028571 675.15428571429 151.71701028571 C 675.15428571429 150.69301028571 675.79428571429 150.18101028571 677.07428571429 150.18101028571 L 684.46628571429 150.37301028571 L 692.62628571429 150.08501028571 C 693.97028571429 150.08501028571 694.64228571429 150.50101028571 694.64228571429 151.33301028571 C 694.64228571429 151.84501028571 693.95428571429 152.50101028571 692.57828571429 153.30101028571 C 691.20228571429 154.10101028571 690.35428571429 154.82101028571 690.03428571429 155.46101028571 C 689.33028571429 156.80501028571 688.97828571429 158.91701028571 688.97828571429 161.79701028571 L 689.07428571429 168.22901028571 C 689.07428571429 180.51701028571 688.56228571429 189.92501028571 687.53828571429 196.45301028571 C 686.51428571429 202.98101028571 684.94628571429 207.71701028571 682.83428571429 210.66101028571 C 678.54628571429 216.86901028571 670.96228571429 219.97301028571 660.08228571429 219.97301028571 C 649.20228571429 219.97301028571 641.52228571429 217.92501028571 637.04228571429 213.82901028571 C 633.52228571429 210.56501028571 631.34628571429 206.64501028571 630.51428571429 202.06901028571 C 629.68228571429 197.49301028571 629.26628571429 189.60501028571 629.26628571429 178.40501028571 L 629.26628571429 176.77301028571 Z M 710.53028571429 149.60501028571 C 714.91428571429 149.86101028571 723.53828571429 149.98901028571 736.40228571429 149.98901028571 C 749.26628571429 149.98901028571 757.04228571429 149.79701028571 759.73028571429 149.41301028571 C 760.43428571429 149.41301028571 760.91428571429 149.60501028571 761.17028571429 149.98901028571 C 761.42628571429 150.37301028571 761.55428571429 150.72501028571 761.55428571429 151.04501028571 L 762.13028571429 158.82101028571 C 762.13028571429 160.42101028571 762.03428571429 161.42901028571 761.84228571429 161.84501028571 C 761.65028571429 162.26101028571 761.23428571429 162.46901028571 760.59428571429 162.46901028571 C 760.08228571429 162.46901028571 759.65028571429 161.81301028571 759.29828571429 160.50101028571 C 758.94628571429 159.18901028571 758.57828571429 158.18101028571 758.19428571429 157.47701028571 C 757.23428571429 155.81301028571 754.45028571429 154.98101028571 749.84228571429 154.98101028571 L 737.36228571429 154.98101028571 C 735.82628571429 154.98101028571 734.88228571429 155.28501028571 734.53028571429 155.89301028571 C 734.17828571429 156.50101028571 734.00228571429 158.24501028571 734.00228571429 161.12501028571 L 734.00228571429 165.82901028571 L 733.71428571429 200.96501028571 L 733.61828571429 207.20501028571 C 733.61828571429 209.95701028571 734.05028571429 211.74901028571 734.91428571429 212.58101028571 C 735.77828571429 213.41301028571 736.72228571429 214.03701028571 737.74628571429 214.45301028571 C 738.77028571429 214.86901028571 739.63428571429 215.10901028571 740.33828571429 215.17301028571 C 742.13028571429 215.30101028571 743.02628571429 215.87701028571 743.02628571429 216.90101028571 C 743.02628571429 217.60501028571 742.86628571429 218.05301028571 742.54628571429 218.24501028571 C 742.22628571429 218.43701028571 741.61828571429 218.53301028571 740.72228571429 218.53301028571 L 730.06628571429 217.76501028571 L 720.27428571429 218.43701028571 C 717.90628571429 218.43701028571 716.72228571429 217.92501028571 716.72228571429 216.90101028571 C 716.72228571429 216.26101028571 716.91428571429 215.82901028571 717.29828571429 215.60501028571 C 717.68228571429 215.38101028571 718.43428571429 215.18901028571 719.55428571429 215.02901028571 C 720.67428571429 214.86901028571 721.39428571429 214.75701028571 721.71428571429 214.69301028571 C 723.89028571429 214.18101028571 725.10628571429 212.90101028571 725.36228571429 210.85301028571 C 726.00228571429 205.22101028571 726.32228571429 193.12501028571 726.32228571429 174.56501028571 L 726.22628571429 157.38101028571 C 726.22628571429 156.16501028571 725.87428571429 155.41301028571 725.17028571429 155.12501028571 C 724.46628571429 154.83701028571 722.13028571429 154.69301028571 718.16228571429 154.69301028571 C 714.19428571429 154.69301028571 711.07428571429 154.82101028571 708.80228571429 155.07701028571 C 706.53028571429 155.33301028571 705.20228571429 155.57301028571 704.81828571429 155.79701028571 C 704.43428571429 156.02101028571 703.97028571429 156.48501028571 703.42628571429 157.18901028571 C 702.88228571429 157.89301028571 702.43428571429 158.70901028571 702.08228571429 159.63701028571 C 701.73028571429 160.56501028571 701.49028571429 161.31701028571 701.36228571429 161.89301028571 C 701.17028571429 163.36501028571 700.56228571429 164.10101028571 699.53828571429 164.10101028571 C 698.83428571429 164.10101028571 698.48228571429 163.55701028571 698.48228571429 162.46901028571 C 698.48228571429 159.90901028571 698.64228571429 157.58901028571 698.96228571429 155.50901028571 C 699.28228571429 153.42901028571 699.45828571429 152.22901028571 699.49028571429 151.90901028571 C 699.52228571429 151.58901028571 699.55428571429 151.38101028571 699.58628571429 151.28501028571 C 699.61828571429 151.18901028571 699.65028571429 151.02901028571 699.68228571429 150.80501028571 C 699.71428571429 150.58101028571 699.76228571429 150.42101028571 699.82628571429 150.32501028571 C 699.89028571429 150.22901028571 699.97028571429 150.10101028571 700.06628571429 149.94101028571 C 700.16228571429 149.78101028571 700.27428571429 149.66901028571 700.40228571429 149.60501028571 C 700.53028571429 149.54101028571 700.69028571429 149.47701028571 700.88228571429 149.41301028571 C 701.26628571429 149.28501028571 701.87428571429 149.22101028571 702.70628571429 149.22101028571 C 703.53828571429 149.22101028571 706.14628571429 149.34901028571 710.53028571429 149.60501028571 Z M 768.27428571429 185.60501028571 C 768.27428571429 174.85301028571 771.50628571429 166.03701028571 777.97028571429 159.15701028571 C 784.43428571429 152.27701028571 793.58628571429 148.83701028571 805.42628571429 148.83701028571 C 810.93028571429 148.83701028571 815.89028571429 149.63701028571 820.30628571429 151.23701028571 C 824.72228571429 152.83701028571 828.21028571429 154.80501028571 830.77028571429 157.14101028571 C 833.33028571429 159.47701028571 835.47428571429 162.14901028571 837.20228571429 165.15701028571 C 840.21028571429 170.40501028571 841.71428571429 175.52501028571 841.71428571429 180.51701028571 C 841.71428571429 189.22101028571 840.01828571429 196.58101028571 836.62628571429 202.59701028571 C 830.16228571429 213.98901028571 819.31428571429 219.68501028571 804.08228571429 219.68501028571 C 796.46628571429 219.68501028571 789.89028571429 218.02101028571 784.35428571429 214.69301028571 C 778.81828571429 211.36501028571 774.75428571429 207.17301028571 772.16228571429 202.11701028571 C 769.57028571429 197.06101028571 768.27428571429 191.55701028571 768.27428571429 185.60501028571 Z M 776.72228571429 180.70901028571 C 776.72228571429 186.40501028571 778.22628571429 192.22901028571 781.23428571429 198.18101028571 C 782.83428571429 201.38101028571 784.77028571429 204.24501028571 787.04228571429 206.77301028571 C 789.31428571429 209.30101028571 792.19428571429 211.38101028571 795.68228571429 213.01301028571 C 799.17028571429 214.64501028571 802.99428571429 215.46101028571 807.15428571429 215.46101028571 C 811.89028571429 215.46101028571 816.56228571429 214.08501028571 821.17028571429 211.33301028571 C 826.29028571429 208.32501028571 829.90628571429 204.13301028571 832.01828571429 198.75701028571 C 833.23428571429 195.87701028571 833.84228571429 192.74101028571 833.84228571429 189.34901028571 C 833.84228571429 177.76501028571 830.80228571429 168.75701028571 824.72228571429 162.32501028571 C 818.64228571429 155.89301028571 811.12228571429 152.67701028571 802.16228571429 152.67701028571 C 795.12228571429 152.67701028571 789.12228571429 155.04501028571 784.16228571429 159.78101028571 C 779.20228571429 164.51701028571 776.72228571429 171.49301028571 776.72228571429 180.70901028571 Z"/></svg>